# MagicaVoxel @ Ephtracy

# group
o 

# material
mtllib Electrolyte.mtl
usemtl palette

# normals
vn -1 0 0
vn 1 0 0
vn 0 0 1
vn 0 0 -1
vn 0 -1 0
vn 0 1 0

# texcoords
vt 0.0917969 0.5
vt 0.306641 0.5
vt 0.966797 0.5
vt 0.990234 0.5
vt 0.994141 0.5

# verts
v -0.4 0 0.3
v -0.4 0 -0.4
v -0.4 0.6 0.3
v -0.4 0.6 -0.4
v -0.3 0.6 0.1
v -0.3 0.6 -0.2
v -0.3 0.7 0.1
v -0.3 0.7 -0.2
v -0.2 0 0.4
v -0.2 0 0.3
v -0.2 0.1 0.3
v -0.2 0.1 0.2
v -0.2 0.1 0.1
v -0.2 0.1 0
v -0.2 0.1 -0.1
v -0.2 0.2 0.2
v -0.2 0.2 0.1
v -0.2 0.4 0
v -0.2 0.4 -0.1
v -0.2 0.5 0.3
v -0.2 0.6 0.3
v -0.2 0.6 0.2
v -0.2 0.6 0.1
v -0.2 0.6 -0.2
v -0.2 0.6 -0.3
v -0.2 0.7 0.3
v -0.2 0.7 0.2
v -0.2 0.7 0.1
v -0.2 0.7 -0.1
v -0.2 0.7 -0.2
v -0.2 0.7 -0.3
v -0.2 0.8 0.4
v -0.2 0.8 -0.1
v 0.1 0 0.4
v 0.1 0 0.3
v 0.1 0.1 0.3
v 0.1 0.1 0.2
v 0.1 0.1 0.1
v 0.1 0.1 0
v 0.1 0.1 -0.1
v 0.1 0.2 0.2
v 0.1 0.2 0.1
v 0.1 0.4 0
v 0.1 0.4 -0.1
v 0.1 0.5 0.3
v 0.1 0.6 0.3
v 0.1 0.7 0.3
v 0.1 0.7 0.2
v 0.1 0.7 -0.1
v 0.1 0.8 0.4
v 0.1 0.8 -0.1
v 0.3 0.1 0.3
v 0.3 0.1 -0.3
v 0.3 0.5 0.3
v 0.3 0.5 -0.3
v -0.3 0.1 0.3
v -0.3 0.1 -0.3
v -0.3 0.5 0.3
v -0.3 0.5 -0.3
v -0.1 0 0.4
v -0.1 0 0.3
v -0.1 0.1 0.3
v -0.1 0.1 0.2
v -0.1 0.1 0.1
v -0.1 0.1 0
v -0.1 0.1 -0.1
v -0.1 0.2 0.2
v -0.1 0.2 0.1
v -0.1 0.4 0
v -0.1 0.4 -0.1
v -0.1 0.5 0.3
v -0.1 0.6 0.3
v -0.1 0.7 0.3
v -0.1 0.7 0.2
v -0.1 0.7 -0.1
v -0.1 0.8 0.4
v -0.1 0.8 -0.1
v 0.2 0 0.4
v 0.2 0 0.3
v 0.2 0.1 0.3
v 0.2 0.1 0.2
v 0.2 0.1 0.1
v 0.2 0.1 0
v 0.2 0.1 -0.1
v 0.2 0.2 0.2
v 0.2 0.2 0.1
v 0.2 0.4 0
v 0.2 0.4 -0.1
v 0.2 0.5 0.3
v 0.2 0.6 0.3
v 0.2 0.6 0.2
v 0.2 0.6 0.1
v 0.2 0.6 -0.2
v 0.2 0.6 -0.3
v 0.2 0.7 0.3
v 0.2 0.7 0.2
v 0.2 0.7 0.1
v 0.2 0.7 -0.1
v 0.2 0.7 -0.2
v 0.2 0.7 -0.3
v 0.2 0.8 0.4
v 0.2 0.8 -0.1
v 0.3 0.6 0.1
v 0.3 0.6 -0.2
v 0.3 0.7 0.1
v 0.3 0.7 -0.2
v 0.4 0 0.3
v 0.4 0 -0.4
v 0.4 0.6 0.3
v 0.4 0.6 -0.4
v -0.2 0 0.4
v -0.2 0.8 0.4
v -0.1 0 0.4
v -0.1 0.8 0.4
v 0.1 0 0.4
v 0.1 0.8 0.4
v 0.2 0 0.4
v 0.2 0.8 0.4
v -0.4 0 0.3
v -0.4 0.6 0.3
v -0.3 0.1 0.3
v -0.3 0.5 0.3
v -0.2 0 0.3
v -0.2 0.1 0.3
v -0.2 0.5 0.3
v -0.2 0.6 0.3
v -0.1 0 0.3
v -0.1 0.1 0.3
v -0.1 0.5 0.3
v -0.1 0.6 0.3
v 0.1 0 0.3
v 0.1 0.1 0.3
v 0.1 0.5 0.3
v 0.1 0.6 0.3
v 0.2 0 0.3
v 0.2 0.1 0.3
v 0.2 0.5 0.3
v 0.2 0.6 0.3
v 0.3 0.1 0.3
v 0.3 0.5 0.3
v 0.4 0 0.3
v 0.4 0.6 0.3
v -0.2 0.1 0.2
v -0.2 0.2 0.2
v -0.2 0.6 0.2
v -0.2 0.7 0.2
v -0.1 0.1 0.2
v -0.1 0.2 0.2
v -0.1 0.7 0.2
v 0.1 0.1 0.2
v 0.1 0.2 0.2
v 0.1 0.7 0.2
v 0.2 0.1 0.2
v 0.2 0.2 0.2
v 0.2 0.6 0.2
v 0.2 0.7 0.2
v -0.3 0.6 0.1
v -0.3 0.7 0.1
v -0.2 0.6 0.1
v -0.2 0.7 0.1
v 0.2 0.6 0.1
v 0.2 0.7 0.1
v 0.3 0.6 0.1
v 0.3 0.7 0.1
v -0.2 0.1 0
v -0.2 0.4 0
v -0.1 0.1 0
v -0.1 0.4 0
v 0.1 0.1 0
v 0.1 0.4 0
v 0.2 0.1 0
v 0.2 0.4 0
v -0.3 0.1 -0.3
v -0.3 0.5 -0.3
v 0.3 0.1 -0.3
v 0.3 0.5 -0.3
v -0.2 0.1 0.3
v -0.2 0.5 0.3
v -0.2 0.6 0.3
v -0.2 0.7 0.3
v -0.1 0.1 0.3
v -0.1 0.5 0.3
v -0.1 0.6 0.3
v -0.1 0.7 0.3
v 0.1 0.1 0.3
v 0.1 0.5 0.3
v 0.1 0.6 0.3
v 0.1 0.7 0.3
v 0.2 0.1 0.3
v 0.2 0.5 0.3
v 0.2 0.6 0.3
v 0.2 0.7 0.3
v -0.2 0.1 0.1
v -0.2 0.2 0.1
v -0.1 0.1 0.1
v -0.1 0.2 0.1
v 0.1 0.1 0.1
v 0.1 0.2 0.1
v 0.2 0.1 0.1
v 0.2 0.2 0.1
v -0.2 0.1 -0.1
v -0.2 0.4 -0.1
v -0.2 0.7 -0.1
v -0.2 0.8 -0.1
v -0.1 0.1 -0.1
v -0.1 0.4 -0.1
v -0.1 0.7 -0.1
v -0.1 0.8 -0.1
v 0.1 0.1 -0.1
v 0.1 0.4 -0.1
v 0.1 0.7 -0.1
v 0.1 0.8 -0.1
v 0.2 0.1 -0.1
v 0.2 0.4 -0.1
v 0.2 0.7 -0.1
v 0.2 0.8 -0.1
v -0.3 0.6 -0.2
v -0.3 0.7 -0.2
v -0.2 0.6 -0.2
v -0.2 0.7 -0.2
v 0.2 0.6 -0.2
v 0.2 0.7 -0.2
v 0.3 0.6 -0.2
v 0.3 0.7 -0.2
v -0.2 0.6 -0.3
v -0.2 0.7 -0.3
v 0.2 0.6 -0.3
v 0.2 0.7 -0.3
v -0.4 0 -0.4
v -0.4 0.6 -0.4
v 0.4 0 -0.4
v 0.4 0.6 -0.4
v -0.2 0 0.4
v -0.1 0 0.4
v 0.1 0 0.4
v 0.2 0 0.4
v -0.4 0 0.3
v -0.2 0 0.3
v -0.1 0 0.3
v 0.1 0 0.3
v 0.2 0 0.3
v 0.4 0 0.3
v -0.4 0 -0.4
v 0.4 0 -0.4
v -0.3 0.5 0.3
v -0.2 0.5 0.3
v -0.1 0.5 0.3
v 0.1 0.5 0.3
v 0.2 0.5 0.3
v 0.3 0.5 0.3
v -0.3 0.5 -0.3
v 0.3 0.5 -0.3
v -0.2 0.7 0.3
v -0.1 0.7 0.3
v 0.1 0.7 0.3
v 0.2 0.7 0.3
v -0.2 0.7 0.2
v -0.1 0.7 0.2
v 0.1 0.7 0.2
v 0.2 0.7 0.2
v -0.3 0.1 0.3
v -0.2 0.1 0.3
v -0.1 0.1 0.3
v 0.1 0.1 0.3
v 0.2 0.1 0.3
v 0.3 0.1 0.3
v -0.2 0.1 0.2
v -0.1 0.1 0.2
v 0.1 0.1 0.2
v 0.2 0.1 0.2
v -0.2 0.1 0.1
v -0.1 0.1 0.1
v 0.1 0.1 0.1
v 0.2 0.1 0.1
v -0.2 0.1 0
v -0.1 0.1 0
v 0.1 0.1 0
v 0.2 0.1 0
v -0.2 0.1 -0.1
v -0.1 0.1 -0.1
v 0.1 0.1 -0.1
v 0.2 0.1 -0.1
v -0.3 0.1 -0.3
v 0.3 0.1 -0.3
v -0.2 0.2 0.2
v -0.1 0.2 0.2
v 0.1 0.2 0.2
v 0.2 0.2 0.2
v -0.2 0.2 0.1
v -0.1 0.2 0.1
v 0.1 0.2 0.1
v 0.2 0.2 0.1
v -0.2 0.4 0
v -0.1 0.4 0
v 0.1 0.4 0
v 0.2 0.4 0
v -0.2 0.4 -0.1
v -0.1 0.4 -0.1
v 0.1 0.4 -0.1
v 0.2 0.4 -0.1
v -0.4 0.6 0.3
v -0.2 0.6 0.3
v -0.1 0.6 0.3
v 0.1 0.6 0.3
v 0.2 0.6 0.3
v 0.4 0.6 0.3
v -0.2 0.6 0.2
v 0.2 0.6 0.2
v -0.3 0.6 0.1
v -0.2 0.6 0.1
v 0.2 0.6 0.1
v 0.3 0.6 0.1
v -0.3 0.6 -0.2
v -0.2 0.6 -0.2
v 0.2 0.6 -0.2
v 0.3 0.6 -0.2
v -0.2 0.6 -0.3
v 0.2 0.6 -0.3
v -0.4 0.6 -0.4
v 0.4 0.6 -0.4
v -0.1 0.7 0.2
v 0.1 0.7 0.2
v -0.3 0.7 0.1
v -0.2 0.7 0.1
v 0.2 0.7 0.1
v 0.3 0.7 0.1
v -0.2 0.7 -0.1
v -0.1 0.7 -0.1
v 0.1 0.7 -0.1
v 0.2 0.7 -0.1
v -0.3 0.7 -0.2
v -0.2 0.7 -0.2
v 0.2 0.7 -0.2
v 0.3 0.7 -0.2
v -0.2 0.7 -0.3
v 0.2 0.7 -0.3
v -0.2 0.8 0.4
v -0.1 0.8 0.4
v 0.1 0.8 0.4
v 0.2 0.8 0.4
v -0.2 0.8 -0.1
v -0.1 0.8 -0.1
v 0.1 0.8 -0.1
v 0.2 0.8 -0.1

# faces
f 3/3/1 2/3/1 1/3/1
f 4/3/1 2/3/1 3/3/1
f 7/1/1 6/1/1 5/1/1
f 8/1/1 6/1/1 7/1/1
f 11/5/1 10/5/1 9/5/1
f 16/4/1 13/4/1 12/4/1
f 17/4/1 13/4/1 16/4/1
f 18/4/1 15/4/1 14/4/1
f 19/4/1 15/4/1 18/4/1
f 20/5/1 11/5/1 9/5/1
f 21/5/1 20/5/1 9/5/1
f 26/5/1 21/5/1 9/5/1
f 27/1/1 23/1/1 22/1/1
f 28/1/1 23/1/1 27/1/1
f 30/1/1 25/1/1 24/1/1
f 31/1/1 25/1/1 30/1/1
f 32/5/1 26/5/1 9/5/1
f 32/5/1 29/5/1 28/5/1
f 32/5/1 27/5/1 26/5/1
f 32/5/1 28/5/1 27/5/1
f 33/5/1 29/5/1 32/5/1
f 36/5/1 35/5/1 34/5/1
f 41/4/1 38/4/1 37/4/1
f 42/4/1 38/4/1 41/4/1
f 43/4/1 40/4/1 39/4/1
f 44/4/1 40/4/1 43/4/1
f 45/5/1 36/5/1 34/5/1
f 46/5/1 45/5/1 34/5/1
f 47/5/1 46/5/1 34/5/1
f 50/5/1 47/5/1 34/5/1
f 50/5/1 49/5/1 48/5/1
f 50/5/1 48/5/1 47/5/1
f 51/5/1 49/5/1 50/5/1
f 54/3/1 53/3/1 52/3/1
f 55/3/1 53/3/1 54/3/1
f 56/3/2 57/3/2 58/3/2
f 58/3/2 57/3/2 59/3/2
f 60/5/2 61/5/2 62/5/2
f 63/4/2 64/4/2 67/4/2
f 67/4/2 64/4/2 68/4/2
f 65/4/2 66/4/2 69/4/2
f 69/4/2 66/4/2 70/4/2
f 60/5/2 62/5/2 71/5/2
f 60/5/2 71/5/2 72/5/2
f 60/5/2 72/5/2 73/5/2
f 60/5/2 73/5/2 76/5/2
f 74/5/2 75/5/2 76/5/2
f 73/5/2 74/5/2 76/5/2
f 76/5/2 75/5/2 77/5/2
f 78/5/2 79/5/2 80/5/2
f 81/4/2 82/4/2 85/4/2
f 85/4/2 82/4/2 86/4/2
f 83/4/2 84/4/2 87/4/2
f 87/4/2 84/4/2 88/4/2
f 78/5/2 80/5/2 89/5/2
f 78/5/2 89/5/2 90/5/2
f 78/5/2 90/5/2 95/5/2
f 91/1/2 92/1/2 96/1/2
f 96/1/2 92/1/2 97/1/2
f 93/1/2 94/1/2 99/1/2
f 99/1/2 94/1/2 100/1/2
f 78/5/2 95/5/2 101/5/2
f 97/5/2 98/5/2 101/5/2
f 95/5/2 96/5/2 101/5/2
f 96/5/2 97/5/2 101/5/2
f 101/5/2 98/5/2 102/5/2
f 103/1/2 104/1/2 105/1/2
f 105/1/2 104/1/2 106/1/2
f 107/3/2 108/3/2 109/3/2
f 109/3/2 108/3/2 110/3/2
f 113/5/3 112/5/3 111/5/3
f 114/5/3 112/5/3 113/5/3
f 117/5/3 116/5/3 115/5/3
f 118/5/3 116/5/3 117/5/3
f 121/3/3 120/3/3 119/3/3
f 122/3/3 120/3/3 121/3/3
f 123/3/3 121/3/3 119/3/3
f 124/3/3 121/3/3 123/3/3
f 125/3/3 120/3/3 122/3/3
f 126/3/3 120/3/3 125/3/3
f 131/3/3 128/3/3 127/3/3
f 132/3/3 128/3/3 131/3/3
f 133/3/3 130/3/3 129/3/3
f 134/3/3 130/3/3 133/3/3
f 139/3/3 136/3/3 135/3/3
f 140/3/3 138/3/3 137/3/3
f 141/3/3 139/3/3 135/3/3
f 141/3/3 140/3/3 139/3/3
f 142/3/3 138/3/3 140/3/3
f 142/3/3 140/3/3 141/3/3
f 147/4/3 144/4/3 143/4/3
f 148/4/3 144/4/3 147/4/3
f 149/1/3 146/1/3 145/1/3
f 152/1/3 149/1/3 145/1/3
f 153/4/3 151/4/3 150/4/3
f 154/4/3 151/4/3 153/4/3
f 155/1/3 152/1/3 145/1/3
f 156/1/3 152/1/3 155/1/3
f 159/1/3 158/1/3 157/1/3
f 160/1/3 158/1/3 159/1/3
f 163/1/3 162/1/3 161/1/3
f 164/1/3 162/1/3 163/1/3
f 167/4/3 166/4/3 165/4/3
f 168/4/3 166/4/3 167/4/3
f 171/4/3 170/4/3 169/4/3
f 172/4/3 170/4/3 171/4/3
f 175/3/3 174/3/3 173/3/3
f 176/3/3 174/3/3 175/3/3
f 177/5/4 178/5/4 181/5/4
f 181/5/4 178/5/4 182/5/4
f 179/5/4 180/5/4 183/5/4
f 183/5/4 180/5/4 184/5/4
f 185/5/4 186/5/4 189/5/4
f 189/5/4 186/5/4 190/5/4
f 187/5/4 188/5/4 191/5/4
f 191/5/4 188/5/4 192/5/4
f 193/4/4 194/4/4 195/4/4
f 195/4/4 194/4/4 196/4/4
f 197/4/4 198/4/4 199/4/4
f 199/4/4 198/4/4 200/4/4
f 201/4/4 202/4/4 205/4/4
f 205/4/4 202/4/4 206/4/4
f 203/5/4 204/5/4 207/5/4
f 207/5/4 204/5/4 208/5/4
f 209/4/4 210/4/4 213/4/4
f 213/4/4 210/4/4 214/4/4
f 211/5/4 212/5/4 215/5/4
f 215/5/4 212/5/4 216/5/4
f 217/1/4 218/1/4 219/1/4
f 219/1/4 218/1/4 220/1/4
f 221/1/4 222/1/4 223/1/4
f 223/1/4 222/1/4 224/1/4
f 225/1/4 226/1/4 227/1/4
f 227/1/4 226/1/4 228/1/4
f 229/3/4 230/3/4 231/3/4
f 231/3/4 230/3/4 232/3/4
f 238/5/5 234/5/5 233/5/5
f 239/5/5 234/5/5 238/5/5
f 240/5/5 236/5/5 235/5/5
f 241/5/5 236/5/5 240/5/5
f 243/3/5 239/3/5 238/3/5
f 243/3/5 242/3/5 241/3/5
f 243/3/5 241/3/5 240/3/5
f 243/3/5 240/3/5 239/3/5
f 243/3/5 238/3/5 237/3/5
f 244/3/5 242/3/5 243/3/5
f 251/3/5 246/3/5 245/3/5
f 251/3/5 250/3/5 249/3/5
f 251/3/5 249/3/5 248/3/5
f 251/3/5 248/3/5 247/3/5
f 251/3/5 247/3/5 246/3/5
f 252/3/5 250/3/5 251/3/5
f 257/5/5 254/5/5 253/5/5
f 258/5/5 254/5/5 257/5/5
f 259/5/5 256/5/5 255/5/5
f 260/5/5 256/5/5 259/5/5
f 261/3/6 262/3/6 267/3/6
f 265/3/6 266/3/6 267/3/6
f 264/3/6 265/3/6 267/3/6
f 263/3/6 264/3/6 267/3/6
f 262/3/6 263/3/6 267/3/6
f 267/3/6 266/3/6 268/3/6
f 268/3/6 266/3/6 269/3/6
f 269/3/6 266/3/6 270/3/6
f 261/3/6 267/3/6 271/3/6
f 268/3/6 269/3/6 272/3/6
f 272/3/6 269/3/6 273/3/6
f 270/3/6 266/3/6 274/3/6
f 272/3/6 273/3/6 275/3/6
f 273/3/6 274/3/6 275/3/6
f 261/3/6 271/3/6 275/3/6
f 271/3/6 272/3/6 275/3/6
f 275/3/6 274/3/6 276/3/6
f 276/3/6 274/3/6 277/3/6
f 274/3/6 266/3/6 278/3/6
f 277/3/6 274/3/6 278/3/6
f 261/3/6 275/3/6 279/3/6
f 276/3/6 277/3/6 280/3/6
f 280/3/6 277/3/6 281/3/6
f 278/3/6 266/3/6 282/3/6
f 261/3/6 279/3/6 283/3/6
f 281/3/6 282/3/6 283/3/6
f 280/3/6 281/3/6 283/3/6
f 279/3/6 280/3/6 283/3/6
f 282/3/6 266/3/6 284/3/6
f 283/3/6 282/3/6 284/3/6
f 285/4/6 286/4/6 289/4/6
f 289/4/6 286/4/6 290/4/6
f 287/4/6 288/4/6 291/4/6
f 291/4/6 288/4/6 292/4/6
f 293/4/6 294/4/6 297/4/6
f 297/4/6 294/4/6 298/4/6
f 295/4/6 296/4/6 299/4/6
f 299/4/6 296/4/6 300/4/6
f 301/3/6 302/3/6 307/3/6
f 305/3/6 306/3/6 307/3/6
f 304/3/6 305/3/6 307/3/6
f 303/3/6 304/3/6 307/3/6
f 302/3/6 303/3/6 307/3/6
f 307/3/6 306/3/6 308/3/6
f 301/3/6 307/3/6 309/3/6
f 309/3/6 307/3/6 310/3/6
f 308/3/6 306/3/6 311/3/6
f 311/3/6 306/3/6 312/3/6
f 301/3/6 309/3/6 313/3/6
f 312/3/6 306/3/6 316/3/6
f 313/3/6 314/3/6 317/3/6
f 315/3/6 316/3/6 318/3/6
f 313/3/6 317/3/6 319/3/6
f 317/3/6 318/3/6 319/3/6
f 301/3/6 313/3/6 319/3/6
f 318/3/6 316/3/6 320/3/6
f 319/3/6 318/3/6 320/3/6
f 316/3/6 306/3/6 320/3/6
f 323/1/6 324/1/6 327/1/6
f 321/1/6 322/1/6 328/1/6
f 328/1/6 322/1/6 329/1/6
f 325/1/6 326/1/6 330/1/6
f 323/1/6 327/1/6 331/1/6
f 329/1/6 330/1/6 331/1/6
f 328/1/6 329/1/6 331/1/6
f 327/1/6 328/1/6 331/1/6
f 331/1/6 330/1/6 332/1/6
f 330/1/6 326/1/6 333/1/6
f 332/1/6 330/1/6 333/1/6
f 333/1/6 326/1/6 334/1/6
f 332/1/6 333/1/6 335/1/6
f 335/1/6 333/1/6 336/1/6
f 337/5/6 338/5/6 341/5/6
f 341/5/6 338/5/6 342/5/6
f 339/5/6 340/5/6 343/5/6
f 343/5/6 340/5/6 344/5/6
